<svg xmlns="http://www.w3.org/2000/svg" width="176.708" height="53.537" viewBox="0 0 176.708 53.537">
  <g id="Group_7" data-name="Group 7" transform="translate(-358.469 -215.459)">
    <path id="Path_20" data-name="Path 20" d="M581.861,222.523A18.286,18.286,0,0,0,556,248.383a18.146,18.146,0,0,0,12.893,5.332,18.823,18.823,0,0,0,7.675-1.664l-3.629-3.591a13.616,13.616,0,1,1,6.843-4.8l3.327,3.327a18.316,18.316,0,0,0-1.247-24.462" transform="translate(-97.869 -0.863)" fill="#e91f27"/>
    <path id="Path_21" data-name="Path 21" d="M588.222,251.292l11.342,11.078-3.364,3.441L584.9,254.7c-1.778-1.7-.945-.794-3.176-.6a6.344,6.344,0,1,1,5.86-6.012c-.151,2.268-1.134,1.474.642,3.213" transform="translate(-110.166 -13.186)" fill="#e91f27"/>
    <path id="Path_22" data-name="Path 22" d="M358.469,252.322V216.858h19.774v4.915H364.216v8.809h14.027v5.066H364.216v16.673Zm33.611-35.463h5.747v35.463H392.08V216.859Zm21.513,35.463V215.459l22.534,21.664c.6.605,1.248,1.248,1.89,1.966.605.68,1.285,1.474,1.966,2.344V216.858h5.293v36.825l-22.95-22.042c-.605-.605-1.21-1.248-1.777-1.891-.567-.68-1.134-1.361-1.626-2.079v24.651Zm92.364,0V236.065l-11.947-19.206h6.05l7.448,12.023c.189.3.378.719.681,1.21.265.491.529,1.058.794,1.626a15.283,15.283,0,0,1,.719-1.588,10.207,10.207,0,0,1,.794-1.4l7.6-11.871h5.784l-12.212,19.206v16.258Z" fill="#221f20"/>
    <path id="Path_23" data-name="Path 23" d="M359.085,311.208h1.02v3.743a1.867,1.867,0,0,0,.378,1.286,1.543,1.543,0,0,0,1.134.416,1.576,1.576,0,0,0,1.172-.416,2.078,2.078,0,0,0,.378-1.286v-3.743h.983v3.857a2.487,2.487,0,0,1-.605,1.852,2.691,2.691,0,0,1-1.928.644,2.593,2.593,0,0,1-1.891-.644,2.44,2.44,0,0,1-.642-1.852v-3.857Zm14.292,6.164v-6.39l3.894,3.781a1.433,1.433,0,0,1,.34.34,3.4,3.4,0,0,1,.341.377v-4.272h.907v6.428l-3.97-3.856a1.154,1.154,0,0,1-.3-.3,2.618,2.618,0,0,1-.3-.377v4.272Zm14.745,0v-6.164h.983V316.5h2.268v.87h-3.252Zm17.127-3.063a2.221,2.221,0,0,0-.151-.87,2.014,2.014,0,0,0-.492-.756,2.212,2.212,0,0,0-.719-.491,2.095,2.095,0,0,0-1.739,0,1.873,1.873,0,0,0-.718.491,2.014,2.014,0,0,0-.492.756,2.246,2.246,0,0,0-.189.87,2.6,2.6,0,0,0,.189.908,1.869,1.869,0,0,0,.492.718,1.953,1.953,0,0,0,.718.529,2.211,2.211,0,0,0,.87.152,1.94,1.94,0,0,0,1.588-.681,1.869,1.869,0,0,0,.492-.718,2.544,2.544,0,0,0,.151-.908m1.059,0a3.334,3.334,0,0,1-.227,1.248,4.047,4.047,0,0,1-.719,1.058,3.352,3.352,0,0,1-1.1.681,2.748,2.748,0,0,1-1.248.265,3.022,3.022,0,0,1-1.285-.265,3.176,3.176,0,0,1-1.059-.681,3.283,3.283,0,0,1-.719-1.058,3.334,3.334,0,0,1-.227-1.248,3.622,3.622,0,0,1,.227-1.247,3.731,3.731,0,0,1,.719-1.059,3.153,3.153,0,0,1,1.059-.681,3.672,3.672,0,0,1,1.285-.227,3.424,3.424,0,0,1,2.344.908,4.76,4.76,0,0,1,.719,1.059,3.633,3.633,0,0,1,.227,1.247m13.914-1.589a2.734,2.734,0,0,0-.907-.529,2.47,2.47,0,0,0-2.609.454,2.139,2.139,0,0,0-.642,1.664,2.25,2.25,0,0,0,.605,1.663,2.138,2.138,0,0,0,1.55.644,3.25,3.25,0,0,0,1.058-.189,3.474,3.474,0,0,0,.946-.567v1.134a2.63,2.63,0,0,1-.87.416,3.266,3.266,0,0,1-1.059.152,3.547,3.547,0,0,1-1.286-.227,2.969,2.969,0,0,1-1.739-1.739,3.294,3.294,0,0,1,.681-3.592,3.159,3.159,0,0,1,1.058-.681,3.069,3.069,0,0,1,2.307-.076,3.362,3.362,0,0,1,.983.454Zm9.074,4.651v-6.164h.983v2.572l2.23-2.572h1.248l-2.457,2.76,2.722,3.4h-1.285l-2.457-3.139v3.139Zm22.836-6.164h1.021l1.173,3.139c.075.189.113.378.188.53.038.152.076.3.114.416a9.373,9.373,0,0,0,.3-.946.117.117,0,0,0,.038-.075l1.248-3.29,1.323,3.365c.038.151.113.3.151.491a1.888,1.888,0,0,1,.152.492c.038-.152.076-.265.113-.416s.113-.34.189-.567l1.172-3.139h.983l-2.382,6.428-1.4-3.516c-.076-.153-.113-.3-.189-.455-.037-.151-.076-.3-.113-.416a2.167,2.167,0,0,0-.152.454c-.038.152-.113.3-.151.417l-1.4,3.516Zm16.674,6.164v-6.164h3.44v.87h-2.457v1.55h2.457v.87h-2.457v2h2.457v.87H468.8Zm13.725-2.421h1.7l-.643-1.4a1.537,1.537,0,0,0-.113-.3c-.037-.113-.076-.265-.113-.378-.038.113-.076.264-.113.378a2.578,2.578,0,0,1-.113.3Zm2.76,2.421-.681-1.588h-2.457l-.719,1.588h-1.058l2.987-6.39,2.987,6.39Zm9.452,0v-6.164h1.021V316.5h2.231v.87h-3.252Zm13.876-5.293v5.293H507.6v-5.293H505.97v-.87h4.272v.87Zm10.209,5.293v-6.164h1.021v2.307h3.024v-2.307h.983v6.164h-.983v-2.987h-3.024v2.987Z" transform="translate(-0.314 -48.641)" fill="#58585a"/>
    <g id="Group_6" data-name="Group 6" transform="translate(525.789 215.507)">
      <path id="Path_24" data-name="Path 24" d="M708.772,220.125a4.7,4.7,0,1,1-4.68-4.569A4.591,4.591,0,0,1,708.772,220.125Zm-8.218,0a3.54,3.54,0,0,0,3.566,3.65,3.5,3.5,0,0,0,3.483-3.622,3.527,3.527,0,1,0-7.049-.028Zm2.814,2.4h-1.059v-4.569a9.268,9.268,0,0,1,1.755-.139,2.846,2.846,0,0,1,1.588.334,1.266,1.266,0,0,1,.445,1,1.169,1.169,0,0,1-.947,1.059v.056a1.349,1.349,0,0,1,.836,1.115,3.477,3.477,0,0,0,.334,1.142h-1.142a3.9,3.9,0,0,1-.362-1.115c-.084-.5-.362-.724-.948-.724h-.5Zm.028-2.591h.5c.585,0,1.059-.195,1.059-.668,0-.418-.306-.7-.975-.7a2.558,2.558,0,0,0-.585.055v1.309Z" transform="translate(-699.384 -215.556)"/>
    </g>
  </g>
</svg>
